<?xml version="1.0" standalone="no"?>
<!DOCTYPE svg PUBLIC "-//W3C//DTD SVG 20010904//EN"
 "http://www.w3.org/TR/2001/REC-SVG-20010904/DTD/svg10.dtd">
<svg version="1.0" xmlns="http://www.w3.org/2000/svg"
 width="512.000000pt" height="512.000000pt" viewBox="0 0 512.000000 512.000000"
 preserveAspectRatio="xMidYMid meet">
<metadata>
Created by potrace 1.11, written by Peter Selinger 2001-2013
</metadata>
<g transform="translate(0.000000,512.000000) scale(0.100000,-0.100000)"
fill="#000000" stroke="none">
<path d="M889 5106 c-51 -18 -101 -59 -123 -101 -11 -19 -33 -88 -50 -152 -30
-112 -32 -117 -60 -120 -36 -5 -83 -39 -90 -67 -15 -51 -107 -495 -110 -531
-5 -49 16 -88 60 -111 18 -10 31 -20 29 -23 -3 -6 -9 -51 -20 -141 -3 -25 -7
-54 -9 -65 -2 -11 -7 -49 -11 -85 -4 -36 -8 -67 -10 -70 -2 -3 -6 -50 -10
-105 -4 -55 -9 -107 -10 -116 -3 -16 -14 -149 -21 -244 -27 -407 -21 -1054 11
-1375 7 -66 9 -89 19 -215 6 -63 10 -100 21 -175 2 -14 7 -50 11 -80 30 -227
30 -226 3 -234 -48 -13 -76 -81 -59 -146 5 -19 11 -48 13 -65 4 -25 13 -66 42
-205 2 -8 11 -51 20 -95 9 -44 21 -96 27 -115 13 -40 54 -80 83 -80 35 0 43
-13 70 -119 14 -58 32 -119 39 -135 17 -39 65 -90 108 -113 31 -17 119 -18
1689 -21 l1656 -2 54 28 c77 40 110 93 145 236 27 112 29 115 58 122 47 10 73
32 90 74 12 30 50 199 80 355 38 197 38 194 19 232 -10 22 -28 40 -46 47 -29
11 -29 11 -22 75 4 36 9 74 10 85 12 69 35 252 40 311 4 39 8 84 10 100 2 17
7 71 10 120 4 50 9 106 10 125 25 262 25 1028 0 1300 -2 19 -6 78 -10 130 -4
52 -8 102 -10 110 -1 8 -6 51 -10 95 -6 75 -18 171 -46 374 -9 68 -9 85 2 92
7 4 16 6 20 3 15 -9 59 58 59 91 0 27 -66 356 -109 544 -14 64 -43 87 -111 90
-12 1 -24 33 -45 118 -35 138 -65 190 -132 230 l-48 28 -1650 2 c-1322 2
-1657 0 -1686 -11z"/>
</g>
</svg>
